<svg width="18" height="18" viewBox="0 0 18 18" fill="none" xmlns="http://www.w3.org/2000/svg">
<path d="M13.1602 3.11011C12.6102 3.11011 12.1602 3.56011 12.1602 4.11011C12.1602 4.67011 12.6102 5.12011 13.1602 5.12011C13.7202 5.12011 14.1702 4.67011 14.1702 4.11011C14.1602 3.56011 13.7102 3.11011 13.1602 3.11011Z" fill="#545EE1"/>
<path d="M8.6907 4.40015C6.3607 4.40015 4.4707 6.29015 4.4707 8.62015C4.4707 10.9501 6.3607 12.8401 8.6907 12.8401C11.0207 12.8401 12.9107 10.9501 12.9107 8.62015C12.9107 6.29015 11.0207 4.40015 8.6907 4.40015ZM8.6907 11.3301C7.2007 11.3301 5.9907 10.1201 5.9907 8.63015C5.9907 7.14015 7.2007 5.93015 8.6907 5.93015C10.1807 5.93015 11.3907 7.14015 11.3907 8.63015C11.3907 10.1201 10.1807 11.3301 8.6907 11.3301Z" fill="#545EE1"/>
<path d="M12.0408 17.19H5.20078C2.36078 17.19 0.0507812 14.88 0.0507812 12.04V5.20005C0.0507812 2.36005 2.36078 0.0500488 5.20078 0.0500488H12.0408C14.8808 0.0500488 17.1908 2.36005 17.1908 5.20005V12.04C17.1908 14.88 14.8808 17.19 12.0408 17.19ZM5.20078 1.66005C3.25078 1.66005 1.66078 3.25005 1.66078 5.20005V12.04C1.66078 13.99 3.25078 15.58 5.20078 15.58H12.0408C13.9908 15.58 15.5808 13.99 15.5808 12.04V5.20005C15.5808 3.25005 13.9908 1.66005 12.0408 1.66005H5.20078Z" fill="#545EE1"/>
</svg>
