<svg width="15" height="18" viewBox="0 0 15 18" fill="none" xmlns="http://www.w3.org/2000/svg">
<path fill-rule="evenodd" clip-rule="evenodd" d="M6.50061 11.8C6.49061 11.85 6.47062 11.89 6.46062 11.94C5.81062 14.49 5.74061 15.06 5.07061 16.25C4.75061 16.81 4.39062 17.35 3.99062 17.86C3.94062 17.92 3.90062 17.99 3.81062 17.97C3.71062 17.95 3.70061 17.86 3.69061 17.78C3.58061 17 3.52062 16.23 3.55062 15.44C3.58062 14.42 3.71062 14.07 5.03062 8.53996C5.05062 8.45996 5.03061 8.38997 5.00061 8.30997C4.69061 7.45997 4.62061 6.59996 4.90061 5.71996C5.50061 3.82996 7.63061 3.68996 8.01061 5.24996C8.24061 6.20996 7.63062 7.46996 7.16062 9.33996C6.77062 10.88 8.58062 11.97 10.1306 10.85C11.5606 9.81996 12.1106 7.33996 12.0006 5.57996C11.7906 2.07996 7.95061 1.31996 5.51061 2.44996C2.72061 3.73996 2.08062 7.20996 3.34062 8.78996C3.50062 8.98996 3.62061 9.10996 3.57061 9.31996C3.49061 9.63996 3.42061 9.95996 3.33061 10.27C3.26061 10.5 3.07061 10.59 2.83061 10.49C2.36061 10.3 1.98062 10.01 1.66062 9.61996C0.590616 8.28996 0.280617 5.66996 1.70062 3.44996C3.27062 0.989965 6.19062 -0.010039 8.85062 0.289961C12.0306 0.649961 14.0506 2.82996 14.4206 5.28996C14.5906 6.40996 14.4706 9.18996 12.8906 11.15C11.0706 13.4 8.13062 13.55 6.77062 12.17C6.69062 12.06 6.60061 11.93 6.50061 11.8Z" fill="#545EE1"/>
</svg>
